<svg width="16" height="16" viewBox="0 0 16 16" fill="none" xmlns="http://www.w3.org/2000/svg">
<path d="M6.84923 1.16527L3.41538 2.25L3 14.8889L3.24923 16L6.46154 14.8333L6.54462 11.8611L7.73538 14.0833L8.45538 14.3333L12 13.1667L8.76 6.83333L11.6677 0.527778L11.1692 0L7.51385 1.11111L6.84923 2.16667V1.16527Z" fill="black"/>
<path d="M3.60923 14.3889L4.05231 2.80556L6.01846 2.11111L5.79692 6.61111L7.95692 1.55556L10.3385 0.777778L7.37538 6.97222L10.2277 12.1944L7.95692 12.9167L5.76923 9.02778L5.65846 13.75L3.60923 14.3889Z" fill="white"/>
<path d="M5.35385 13.4167L3.96923 13.8611L4.46769 3.19444H4.57846V8.16667L5.52 6.58333V7.47222L6.43385 6.25L7.59692 5.47222L7.12615 7.05555L9.70154 12.0278L8.06769 12.5L5.57538 8.13889L5.35385 13.4167Z" fill="#E4193B"/>
</svg>
